<svg width="78" height="119" viewBox="0 0 78 119" fill="none" xmlns="http://www.w3.org/2000/svg">
<path d="M44.4555 35.7165C46.5393 30.551 47.8403 24.1288 43.6991 23.5666C38.1362 22.8249 34.984 31.5753 34.6102 35.2897C34.5984 35.4045 34.5896 35.5222 34.5808 35.6399L34.569 35.6517V35.6576C25.4978 37.6031 16.4295 44.3874 16.0646 51.6632C15.6378 60.2134 21.2565 61.5203 23.1137 61.5203C28.1173 61.5203 30.3483 56.3195 30.3483 56.3195C30.3483 56.3195 25.1534 54.2709 25.3388 49.2438C25.4978 44.9613 28.3557 40.0078 34.4777 38.6392L34.4925 38.645C34.4807 40.3757 34.5189 42.4801 34.5719 44.7465C32.2085 46.9863 30.1629 48.5021 30.1629 48.5021L29.9804 52.2224C29.9804 52.2224 32.1261 50.5683 34.6749 48.3402C34.7838 51.9075 34.9104 55.6043 34.9869 58.7271C35.1047 63.8013 35.8199 70.8063 34.1628 75.2625C32.2938 74.5914 30.2718 73.7908 27.0136 73.6172C22.5751 73.3729 20.0792 74.8004 19.7819 77.3375C19.5082 79.6479 21.4478 82.55 26.4573 82.3646C28.8237 82.2793 31.9995 80.9253 34.8015 78.5619C37.9538 80.0276 40.9441 82.5353 45.6769 82.3646C51.6548 82.1439 64.2932 76.9607 64.8466 60.2223C65.3116 46.0827 54.0123 37.9181 44.4555 35.7165ZM41.4739 34.9188C41.4533 35.0101 41.421 35.1131 41.3974 35.2014C40.7234 35.1425 40.067 35.1043 39.4342 35.1043C38.8485 35.1043 38.251 35.1337 37.6447 35.1837C39.1723 28.2405 42.9367 28.6791 41.4739 34.9188ZM37.1679 38.286L37.1973 38.2036C37.1973 38.233 37.1944 38.2565 37.1885 38.283C37.4416 38.2712 37.6918 38.2683 37.9479 38.2683C38.6337 38.2683 39.3106 38.2889 39.9846 38.3419C39.2341 39.581 38.2864 40.8084 37.2827 41.9474C37.1414 40.829 37.0943 39.6104 37.1885 38.283C37.1826 38.286 37.1738 38.286 37.1679 38.286ZM27.7141 79.4978C22.7046 79.4978 23.6965 75.7893 28.1202 76.4133C29.2711 76.5663 30.9193 77.0785 32.8383 77.6465C31.82 78.7179 29.6095 79.4978 27.7141 79.4978ZM54.2713 55.3894C53.9005 68.9727 50.7777 77.6495 42.404 77.8996C40.017 77.9673 38.357 77.3757 36.7823 76.6105C39.0457 74.0322 41.0648 70.5414 42.404 65.9911C45.7417 54.6447 45.5563 51.4837 45.5563 51.4837C45.5563 51.4837 42.0302 51.8545 40.3614 49.6206C39.6255 48.6404 38.7102 47.1776 38.0421 45.238C39.7609 43.5486 41.3327 41.7944 42.2156 40.3198C42.4864 39.8665 42.7778 39.3397 43.0662 38.7716C49.462 40.1402 54.5686 44.5787 54.2713 55.3894Z" fill="#009FDF"/>
<path d="M38.9985 0.970703L0 59.754L38.9985 118.54L78 59.754L38.9985 0.970703ZM3.49368 59.754L38.9985 6.26862L74.5093 59.754L38.9985 113.239L3.49368 59.754Z" fill="#009FDF"/>
</svg>
