<svg width="1920" height="1080" viewBox="0 0 1920 1080" fill="none" xmlns="http://www.w3.org/2000/svg">
<g clip-path="url(#clip0_1744_828)">
<rect width="1920" height="1080" fill="#192464"/>
<g clip-path="url(#clip1_1744_828)">
<path d="M-181.832 -261.833L-181.832 1340.83L2111.83 1340.83L2111.83 -261.834L-181.832 -261.833Z" stroke="#DDDCD3" stroke-width="2" stroke-miterlimit="10"/>
<path d="M2108.68 1073.75C2070.97 1081.73 2032.53 1085.74 1993.99 1085.71C1917.72 1085.46 1842.35 1069.24 1772.73 1038.1C1703.11 1006.96 1640.78 961.599 1589.76 904.924C1538.73 848.25 1500.14 781.522 1476.47 709.036C1452.8 636.551 1444.57 559.912 1452.31 484.054C1460.05 408.197 1483.6 334.8 1521.42 268.588C1559.25 202.377 1610.53 144.818 1671.95 99.6147C1733.37 54.4118 1803.58 22.567 1878.06 6.13021C1952.54 -10.3066 2029.63 -10.9715 2104.38 4.17855" stroke="#DDDCD3" stroke-width="2" stroke-miterlimit="10"/>
<path d="M1652.94 686.337C1613.97 686.337 1576.6 670.859 1549.04 643.308C1521.48 615.758 1506 578.39 1506 539.428C1506 500.465 1521.48 463.099 1549.04 435.548C1576.6 407.997 1613.97 392.519 1652.94 392.519" stroke="#DDDCD3" stroke-width="2" stroke-miterlimit="10"/>
<path d="M1652.87 348.232L1652.87 730.696L2108.61 730.696L2108.61 348.232L1652.87 348.232Z" stroke="#DDDCD3" stroke-width="2" stroke-miterlimit="10"/>
<path d="M-181.832 1073.67C-102.384 1090.63 -20.155 1089.65 58.8685 1070.82C137.892 1051.99 211.721 1015.78 274.98 964.824C338.238 913.866 389.334 849.447 424.548 776.255C459.761 703.064 478.205 622.942 478.537 541.724C478.869 460.506 461.081 380.237 426.467 306.76C391.854 233.283 341.286 168.447 278.447 116.975C215.607 65.5026 142.076 28.6885 63.2095 9.21306C-15.6574 -10.2624 -97.8758 -11.9085 -177.46 4.39385" stroke="#DDDCD3" stroke-width="2" stroke-miterlimit="10"/>
<path d="M273.977 686.265C312.948 686.265 350.323 670.787 377.88 643.237C405.437 615.686 420.919 578.32 420.919 539.357C420.919 500.394 405.437 463.027 377.88 435.477C350.323 407.926 312.948 392.448 273.977 392.448" stroke="#DDDCD3" stroke-width="2" stroke-miterlimit="10"/>
<path d="M962 899C1057.21 899 1148.53 861.176 1215.85 793.851C1283.18 726.525 1321 635.213 1321 540.001C1321 444.788 1283.18 353.474 1215.85 286.148C1148.53 218.823 1057.21 181 962 181" stroke="#DDDCD3" stroke-width="2" stroke-miterlimit="10"/>
<path d="M-181.832 348.232L-181.832 730.696L273.976 730.696L273.976 348.232L-181.832 348.232Z" stroke="#DDDCD3" stroke-width="2" stroke-miterlimit="10"/>
<path d="M-152 73.0001L-152 1007L962 1007L962 73L-152 73.0001Z" stroke="#DDDCD3" stroke-width="2" stroke-miterlimit="10"/>
<path d="M962.24 -261.833L962.24 1340.83" stroke="#DDDCD3" stroke-width="2" stroke-miterlimit="10"/>
<path d="M343.5 899H1585" stroke="#DDDCD3" stroke-width="2" stroke-miterlimit="10"/>
<path d="M962 181H1584" stroke="#DDDCD3" stroke-width="2" stroke-miterlimit="10"/>
<path d="M1731 711C1719.95 711 1711 719.954 1711 731C1711 742.046 1719.96 751 1731.01 751C1742.05 751 1751 742.046 1751 731C1751 719.954 1742.05 711 1731 711Z" fill="#E5E3DB"/>
<path d="M405.001 251C393.955 251 385.002 259.954 385.003 271C385.005 282.046 393.96 291 405.006 291C416.052 291 425.005 282.046 425.003 271C425.002 259.954 416.046 251 405.001 251Z" fill="#E5E3DB"/>
</g>
<path d="M2109 1360.61C2051.06 1372.87 1991.99 1379.04 1932.76 1379C1815.55 1378.61 1699.73 1353.68 1592.74 1305.82C1485.75 1257.97 1389.97 1188.24 1311.56 1101.14C1233.15 1014.03 1173.84 911.474 1137.47 800.067C1101.09 688.66 1088.44 570.87 1100.34 454.281C1112.24 337.691 1148.42 224.885 1206.55 123.121C1264.68 21.3568 1343.48 -67.1084 1437.87 -136.583C1532.26 -206.057 1640.15 -255.001 1754.6 -280.264C1869.05 -305.526 1987.52 -306.548 2102.39 -283.263" stroke="#DDDCD3" stroke-width="2" stroke-miterlimit="10"/>
</g>
<defs>
<clipPath id="clip0_1744_828">
<rect width="1920" height="1080" fill="white"/>
</clipPath>
<clipPath id="clip1_1744_828">
<rect width="1617" height="2308" fill="white" transform="translate(-189 1348) rotate(-90)"/>
</clipPath>
</defs>
</svg>
