<svg width="151" height="119" viewBox="0 0 151 119" fill="none" xmlns="http://www.w3.org/2000/svg">
<path d="M47.2849 15.5353V117.439H42.5403L43.1281 27.5018H42.7083L37.4598 117.439H33.3031L28.0546 27.5018H27.5928L28.1386 117.439H23.3521V15.5353H31.1617L35.2765 88.9293H35.7383L39.9371 15.5353H47.2849Z" fill="#6FB1BF"/>
<path d="M68.9505 15.5353L61.6027 117.439H56.8581L60.0491 74.4017H57.4459L52.0295 15.5353H56.8581L60.7209 68.1456H61.3507L64.4578 15.5353H68.9505Z" fill="#6FB1BF"/>
<path d="M73.0229 103.205V70.8327H77.7675V105.22C77.7675 109.797 78.6493 111.603 80.2028 111.603C81.6724 111.603 82.6381 109.839 82.6381 105.22V70.4549C82.6381 65.3744 81.6724 63.5689 79.1951 63.5689H75.5422V57.1868H79.1531C81.6724 57.1868 82.5961 55.5493 82.5961 50.3009V27.7537C82.5961 23.177 81.6304 21.3716 80.1608 21.3716C78.6073 21.3716 77.7255 23.135 77.7255 27.7537V50.049H73.0229V29.811C73.0229 19.1042 75.4582 14.7795 80.2868 14.7795C85.1993 14.7795 87.3826 19.1042 87.3826 29.811V46.1022C87.3826 54.2477 85.9131 58.8243 82.4701 60.2519V60.7558C85.9131 62.2673 87.3826 65.7103 87.3826 73.4779V103.163C87.3826 113.744 84.8634 118.195 80.1188 118.195C75.1223 118.237 73.0229 113.744 73.0229 103.205Z" fill="#6FB1BF"/>
<path d="M104.598 110.847V117.439H92.925V15.5353H104.262V22.1694H97.6696V57.0609H103.716V63.6949H97.6696V110.847H104.598Z" fill="#6FB1BF"/>
<path d="M126.431 117.439H121.771L122.694 34.5137H122.274L115.43 117.439H109.594V15.5353H114.171L113.205 98.4605H113.709L120.553 15.5353H126.431V117.439Z" fill="#6FB1BF"/>
<path d="M112.659 0.0419874H117.026C117.026 0.587824 117.026 1.13366 117.026 1.6795C117.068 2.81316 117.068 3.94682 117.278 5.03849C117.32 5.16445 117.32 5.3324 117.362 5.45837C117.614 6.46606 118.244 6.63401 118.832 6.38209C119.084 6.25613 119.251 5.96221 119.335 5.62632C119.545 4.82855 119.587 3.98881 119.629 3.14906C119.671 2.18335 119.671 1.21764 119.671 0.251925C119.671 0.16795 119.671 0.125962 119.671 0H124.038C124.038 0.461862 124.038 0.965711 124.038 1.42757C123.996 2.81316 123.87 4.19874 123.576 5.50035C123.198 7.30581 122.526 8.77537 121.351 9.65711C120.679 10.161 119.923 10.4129 119.167 10.4969C118.202 10.6228 117.278 10.5808 116.354 10.2449C114.675 9.69909 113.625 8.10357 113.121 5.71029C112.827 4.45067 112.701 3.10707 112.659 1.80546C112.659 1.25962 112.659 0.671799 112.659 0.0419874Z" fill="#6FB1BF"/>
<path d="M146.333 66.2561C146.081 66.2561 145.745 66.0042 145.577 65.7943C145.661 65.3744 145.703 64.9545 145.703 64.5766C145.703 63.485 145.661 62.5192 144.906 62.0574C144.528 58.1945 142.722 57.1869 141.085 57.1869C138.44 57.1869 132.225 60.8398 128.824 71.2106C127.943 73.9398 127.565 76.2491 127.607 78.2225C127.061 78.8524 123.534 83.0511 122.148 83.0511C120.889 83.0511 120.595 81.5395 120.931 80.7418C121.225 79.902 128.447 57.1869 128.447 57.1869H124.458L117.782 78.1386C116.984 79.0623 113.499 83.0511 112.449 83.0511C111.778 83.0511 111.148 82.8412 111.652 81.4136C112.113 79.944 119.209 57.6907 119.209 57.6907C119.041 57.6067 118.579 57.3548 117.908 57.1869C117.908 57.1869 116.396 56.557 114.171 59.1183C111.945 61.7215 110.854 63.317 110.224 64.9125C109.594 66.5081 104.976 77.5088 104.22 79.3982C103.884 80.2799 101.701 83.1351 100.399 83.1351C99.8111 83.1351 99.4752 82.9671 99.3073 82.7572C99.8111 82.2953 100.147 82.1694 100.147 81.4136C100.147 79.944 98.9714 78.8104 97.5438 78.8104C96.1162 78.8104 95.0246 79.986 94.9406 81.4136C94.9406 81.8335 95.0665 82.8831 95.5284 83.9328C95.0665 84.1848 94.6047 84.3947 94.3108 84.3947C92.5053 84.3947 93.2191 81.7075 93.429 81.2037C93.8069 80.3219 101.239 57.1449 101.239 57.1449H97.1659L96.3262 59.7481C95.9483 57.9846 94.6047 57.1449 91.7495 57.1449C85.0735 57.1449 83.2681 62.6452 80.287 72.0084C79.6152 74.1917 78.9434 76.2911 78.5235 78.1806C77.4318 79.5242 74.4087 83.0931 73.527 83.0931C72.2254 83.0931 72.0154 82.3793 72.2254 81.7495L80.077 57.1449H75.9623L71.2177 71.9664C70.7978 72.1344 69.1183 72.7222 67.9007 72.6802C66.893 72.6382 66.2212 72.3863 65.9273 72.2603L70.7558 57.1449H66.6411L59.9231 78.1806C58.4535 79.3142 54.5487 83.0511 52.5333 83.0511C50.9798 83.0511 51.9455 81.4136 52.4913 79.6081C53.2891 76.9209 59.6292 57.1449 59.6292 57.1449L55.5984 57.1869C55.5984 57.1869 50.5599 72.3863 48.7124 78.0546C48.4185 78.9363 44.9336 83.219 43.1701 83.0931C42.1624 83.0091 43.2121 80.2799 43.2121 80.2799L50.5599 57.2288H46.4871L44.3457 63.9468L40.063 66.844C40.6089 60.7138 38.7194 51.7705 31.6655 47.3618C33.471 44.7586 33.7649 43.0791 32.4633 42.2393C30.196 40.7698 27.4668 43.457 26.2072 45.2204C25.0315 44.9685 23.8139 44.8006 22.4703 44.7586C8.32053 44.2547 -2.38626 64.4087 8.48848 68.9433C13.317 70.9587 16.634 64.0728 16.634 64.0728C7.98463 64.2407 5.80129 49.2932 22.3023 47.1099C23.2261 46.9839 24.1498 47.0259 25.0315 47.1519C25.0315 47.1938 24.9895 47.2358 24.9895 47.2778C24.5697 48.1596 23.9818 50.3429 23.31 52.9881C20.119 54.5416 17.3478 54.8356 17.3478 54.8356L16.676 58.0266C16.676 58.0266 20.035 56.809 22.6382 55.6753C21.7145 59.5381 20.6648 63.9048 19.6571 67.0959C18.4395 71.0007 17.0119 76.795 14.3247 80.7418C12.0154 80.3219 9.37022 79.5661 7.48078 79.0623C2.69422 77.9286 -0.160928 79.3562 0.00702148 82.6312C0.132984 84.8146 2.86217 86.662 6.85097 86.4941C8.82438 86.4101 12.0154 86.2002 15.3744 83.9328C18.9853 85.3604 22.8482 87.1239 26.753 86.3261C35.7383 84.4787 38.1316 74.8216 39.5592 70.161C39.6851 69.7831 39.7691 69.4052 39.8531 68.9853L43.6739 66.4241C43.6739 66.4241 40.5669 76.1232 40.063 77.6767C39.6851 78.8524 37.1239 86.578 41.2807 86.578C44.2198 86.578 47.9986 81.5396 47.9986 81.5396C47.9986 81.5396 46.949 86.578 50.3919 86.578C53.331 86.578 58.9154 81.5396 58.9154 81.5396L57.2779 86.578H61.4346L65.3394 74.4017C65.6334 74.6116 66.3052 74.9895 67.5648 74.9895C69.0343 75.0315 70.126 74.5696 70.5459 74.3597C70.5459 74.3597 68.7824 80.112 68.2366 81.7495C67.6907 83.345 68.4045 86.578 71.8895 86.578C74.1988 86.578 76.676 83.5969 78.0616 81.5396C77.8937 84.6046 78.9434 86.578 82.5963 86.578C85.4514 86.578 87.9707 83.6389 89.7341 81.5396C89.7341 81.5396 88.6005 86.578 93.7649 86.578C94.9826 86.578 95.9483 86.1162 96.6621 85.5284C97.3339 86.1582 98.2156 86.62 99.4332 86.62C102.246 86.62 105.228 81.4976 107.243 76.5011C107.873 74.9475 111.987 65.3744 112.197 64.8705C112.407 64.3247 113.163 63.1491 113.541 63.1491H113.583C113.583 63.1491 107.537 82.6732 107.285 83.1771C106.907 84.1008 107.957 86.5361 110.014 86.5361C112.953 86.5361 115.095 83.6389 117.404 81.4976C117.404 81.4976 116.606 86.578 120.259 86.5361C122.4 86.4941 125.885 83.0931 128.069 81.0777C129.202 85.6123 132.813 87.1239 134.997 86.2421C137.012 85.4444 141.127 83.219 143.73 72.5962C144.15 70.9587 144.444 69.4892 144.654 68.1456C145.116 68.1875 145.703 68.2295 146.333 68.1036C147.551 67.8517 150.532 65.2484 150.532 65.2484L150.7 63.5689C150.616 63.443 146.711 66.2561 146.333 66.2561ZM7.31283 84.0588C0.888757 83.5969 3.03012 79.2302 7.98463 80.8678C9.58015 81.4136 11.0077 82.0434 12.5193 82.7572C11.0917 84.1008 9.4122 84.2267 7.31283 84.0588ZM30.4059 46.564L28.0546 45.5983C29.9441 42.9951 33.1771 42.3233 30.4059 46.564ZM26.627 47.5297C27.4248 47.8237 28.1806 48.2015 28.8524 48.7054C27.7607 49.965 26.5851 50.9307 25.3674 51.7705C25.5774 50.2169 25.9552 48.7474 26.627 47.5297ZM34.3107 67.5158C31.8335 77.0889 28.1386 80.4479 23.31 81.7915C22.2604 82.0854 20.4549 81.7915 18.3555 81.4136C20.7068 79.2722 23.0161 76.5011 24.8216 73.0581C29.986 63.317 29.986 61.8055 29.986 61.8055C29.986 61.8055 26.627 60.7978 25.8293 58.7824C25.4934 57.9426 25.2415 56.2631 25.1995 54.3737C26.0812 53.8279 28.0966 51.8125 29.986 49.5451C34.0168 53.1141 36.2842 60 34.3107 67.5158ZM90.4059 78.1386C88.5585 80.028 85.7033 83.0511 83.52 83.0511C80.7488 83.0511 83.0162 76.3331 84.0658 73.1421C85.2835 69.2372 87.5508 60.3779 91.5816 60.3779C93.639 60.3779 94.8986 60.9237 95.6124 61.8055V61.8475L90.4059 78.1386ZM142.596 71.7145C139.027 82.5472 137.012 82.3373 136.298 82.6732C134.031 83.8069 130.42 80.112 133.107 70.077C135.416 61.4696 139.195 59.3702 141.001 59.3702C141.337 59.3702 142.512 59.958 143.268 61.7215C142.176 61.8894 141.211 63.1071 141.211 64.5766C141.211 66.1302 142.512 67.1379 143.562 67.7257C143.604 67.7257 143.604 67.7677 143.646 67.7677C143.394 68.9433 143.058 70.2449 142.596 71.7145ZM142.932 65.3744C142.554 65.3744 142.218 64.9965 142.218 64.5766C142.218 64.1148 142.554 63.7789 142.932 63.7789C143.31 63.7789 143.646 64.1148 143.646 64.5766C143.646 64.9965 143.31 65.3744 142.932 65.3744Z" fill="white"/>
</svg>
