<svg xmlns="http://www.w3.org/2000/svg" width="150" height="54" fill="none"><path fill="#009FDF" fill-rule="evenodd" d="M10.21.434 7.657 7.431h35.397L45.607.434H10.211ZM6.38 10.928l-2.555 6.995h35.397l2.554-6.995H6.38ZM2.554 21.42 0 28.416h35.397l2.552-6.995H2.554Z" clip-rule="evenodd"/><mask id="a" width="97" height="43" x="53" y="11" maskUnits="userSpaceOnUse" style="mask-type:luminance"><path fill="#0A2973" d="M53.106 53.921H150V11.062H53.106v42.86Z"/></mask><path fill="#fff" fill-rule="evenodd" d="M75.25 31.082v.148c1.618.594 3.163 1.632 3.973 2.299 2.501 2.076 3.606 4.82 3.606 8.379 0 5.86-3.09 10.085-8.167 11.42-1.546.445-3.163.594-6.181.594H53.106v-42.86h13.61c2.797 0 4.709.148 6.4.592 4.93 1.335 8.167 4.747 8.167 10.159 0 2.892-1.03 5.34-2.721 6.97-.736.742-1.766 1.633-3.311 2.3Zm-13.61 4.523v11.272h5.886c1.764 0 3.384-.148 4.562-1.26 1.176-1.114 1.692-2.522 1.692-4.376 0-1.408-.37-2.743-1.105-3.707-1.25-1.557-2.796-1.929-5.443-1.929H61.64Zm-.074-7.415h4.782c1.471 0 2.207 0 2.942-.222 1.988-.594 3.239-2.372 3.239-4.82 0-2.89-1.325-4.153-3.239-4.745-.81-.222-1.617-.297-3.237-.297h-4.487V28.19ZM95.63 53.922V18.254H83.344v-7.192h34.137l-2.427 7.192h-10.89v35.668H95.63Zm24.499 0v-42.86h27.664l-2.427 7.192h-16.775v9.491h6.842c5.518 0 8.388 1.336 10.374 3.04 1.545 1.336 4.193 4.301 4.193 10.16 0 5.784-2.722 8.972-5.003 10.604-2.647 1.852-5.443 2.373-11.109 2.373h-13.759Zm8.462-7.193h6.401c2.427 0 3.899-.594 4.929-1.929.515-.666 1.25-1.854 1.25-4.078s-.735-3.782-2.206-4.895c-.882-.666-2.061-1.036-4.047-1.036h-6.327v11.938Z" clip-rule="evenodd"/></svg>
