<svg width="20" height="20" viewBox="0 0 20 20" fill="none" xmlns="http://www.w3.org/2000/svg">
<path d="M10 2.30009C12.5 2.30009 12.8 2.30009 13.8 2.40009C14.7 2.40009 15.2 2.6001 15.5 2.7001C15.9 2.9001 16.2 3.10009 16.6 3.40009C16.9 3.70009 17.1 4.0001 17.3 4.5001C17.4 4.8001 17.6 5.3001 17.6 6.2001C17.6 7.2001 17.7 7.5001 17.7 10.0001C17.7 12.5001 17.7 12.8001 17.6 13.8001C17.6 14.7001 17.4 15.2001 17.3 15.5001C17.1 15.9001 16.9 16.2001 16.6 16.6001C16.3 16.9001 16 17.1001 15.5 17.3001C15.2 17.4001 14.7 17.6001 13.8 17.6001C12.8 17.6001 12.5 17.7001 10 17.7001C7.5 17.7001 7.19998 17.7001 6.19998 17.6001C5.29998 17.6001 4.8 17.4001 4.5 17.3001C4.1 17.1001 3.79999 16.9001 3.39999 16.6001C3.09999 16.3001 2.89998 16.0001 2.69998 15.5001C2.59998 15.2001 2.39999 14.7001 2.39999 13.8001C2.39999 12.8001 2.29999 12.5001 2.29999 10.0001C2.29999 7.5001 2.29999 7.2001 2.39999 6.2001C2.39999 5.3001 2.59998 4.8001 2.69998 4.5001C2.89998 4.1001 3.09999 3.80009 3.39999 3.40009C3.69999 3.10009 4 2.9001 4.5 2.7001C4.8 2.6001 5.29998 2.40009 6.19998 2.40009C7.19998 2.30009 7.5 2.30009 10 2.30009ZM10 0.600098C7.5 0.600098 7.10001 0.600096 6.10001 0.700096C5.10001 0.700096 4.39999 0.900098 3.79999 1.1001C3.19999 1.3001 2.70001 1.7001 2.10001 2.2001C1.60001 2.7001 1.3 3.20009 1 3.90009C0.8 4.50009 0.600006 5.2001 0.600006 6.2001C0.600006 7.2001 0.5 7.5001 0.5 10.1001C0.5 12.6001 0.500006 13.0001 0.600006 14.0001C0.600006 15.0001 0.8 15.7001 1 16.3001C1.2 16.9001 1.60001 17.4001 2.10001 18.0001C2.60001 18.5001 3.09999 18.8001 3.79999 19.1001C4.39999 19.3001 5.10001 19.5001 6.10001 19.5001C7.10001 19.5001 7.4 19.6001 10 19.6001C12.5 19.6001 12.9 19.6001 13.9 19.5001C14.9 19.5001 15.6 19.3001 16.2 19.1001C16.8 18.9001 17.3 18.5001 17.9 18.0001C18.4 17.5001 18.7 17.0001 19 16.3001C19.2 15.7001 19.4 15.0001 19.4 14.0001C19.4 13.0001 19.5 12.7001 19.5 10.1001C19.5 7.5001 19.5 7.2001 19.4 6.2001C19.4 5.2001 19.2 4.50009 19 3.90009C18.8 3.30009 18.4 2.8001 17.9 2.2001C17.4 1.7001 16.9 1.4001 16.2 1.1001C15.6 0.900098 14.9 0.700096 13.9 0.700096C12.9 0.600096 12.6 0.600098 10 0.600098Z" fill="white"/>
<path d="M10.0002 5.2002C7.30021 5.2002 5.2002 7.4002 5.2002 10.0002C5.2002 12.7002 7.40021 14.8002 10.0002 14.8002C12.6002 14.8002 14.8002 12.6002 14.8002 10.0002C14.8002 7.3002 12.7002 5.2002 10.0002 5.2002ZM10.0002 13.1002C8.30021 13.1002 6.90021 11.7002 6.90021 10.0002C6.90021 8.3002 8.30021 6.90019 10.0002 6.90019C11.7002 6.90019 13.1002 8.3002 13.1002 10.0002C13.2002 11.7002 11.8002 13.1002 10.0002 13.1002Z" fill="white"/>
<path d="M14.9999 6.10015C15.6074 6.10015 16.0999 5.60767 16.0999 5.00015C16.0999 4.39264 15.6074 3.90015 14.9999 3.90015C14.3924 3.90015 13.8999 4.39264 13.8999 5.00015C13.8999 5.60767 14.3924 6.10015 14.9999 6.10015Z" fill="white"/>
</svg>
