<svg width="18" height="14" viewBox="0 0 18 14" fill="none" xmlns="http://www.w3.org/2000/svg">
<path d="M15.6004 1.3C15.2004 0.9 14.6004 0.9 14.2004 1.3C13.8004 1.7 13.8004 2.3 14.2004 2.7C15.4004 3.9 16.0004 5.4 16.0004 7C16.0004 8.6 15.4004 10.1 14.2004 11.3C13.8004 11.7 13.8004 12.3 14.2004 12.7C14.4004 12.9 14.7004 13 14.9004 13C15.2004 13 15.4004 12.9 15.6004 12.7C17.1004 11.2 18.0004 9.2 18.0004 7C18.0004 4.8 17.1004 2.8 15.6004 1.3Z" fill="#ABABAB"/>
<path d="M11.282 3.28197C10.906 3.65794 10.906 4.22189 11.282 4.59786C12.0172 5.33303 12.2773 6.05605 12.2773 7C12.2773 7.93588 11.8517 8.9172 11.282 9.48691C10.906 9.86287 10.906 10.4268 11.282 10.8028C11.4272 10.948 11.9177 11.065 12.2998 10.9593C12.4124 10.9281 12.5157 10.8776 12.5979 10.8028C13.7734 9.73265 14.1311 8.15979 14.1313 7C14.1313 6.82996 14.1286 6.66016 14.1197 6.48974C14.0675 5.49785 13.801 4.48514 12.5979 3.28197C12.2219 2.90601 11.6579 2.90601 11.282 3.28197Z" fill="#ABABAB"/>
<path d="M3.78571 4.00821H0.714286C0.285714 4.00821 0 4.30901 0 4.76022V9.27232C0 9.72353 0.285714 10.0243 0.714286 10.0243H3.78571L7.85714 13.882C8.35714 14.1828 9 13.882 9 13.2804V0.752159C9 0.150547 8.35714 -0.225461 7.85714 0.150547L3.78571 4.00821Z" fill="#ABABAB"/>
</svg>
