<svg width="22" height="14" viewBox="0 0 22 14" fill="none" xmlns="http://www.w3.org/2000/svg">
<path d="M19.4002 9.5001C17.6002 7.7001 17.8002 8.0001 20.0002 5.0001C21.3002 3.2001 21.8002 2.0001 21.7002 1.5001C21.6002 1.2001 20.6002 1.30009 20.6002 1.30009H17.4002C17.4002 1.30009 16.9002 1.3001 16.7002 1.6001C16.4002 2.3001 16.2002 3.1001 15.5002 4.2001C14.0002 6.8001 13.5002 6.90009 13.2002 6.80009C12.7002 6.40009 12.8002 5.3001 12.8002 4.5001C12.8002 2.0001 13.1002 1.0001 12.1002 0.700096C11.9002 0.600096 11.7002 0.600098 11.3002 0.600098C10.9002 0.600098 10.5002 0.600098 10.1002 0.600098C9.10021 0.600098 8.40021 0.600093 7.90021 0.900093C7.50021 1.10009 7.20021 1.5001 7.40021 1.6001C7.60021 1.6001 8.10021 1.8001 8.40021 2.1001C8.70021 2.6001 8.70022 3.6001 8.70022 3.6001C8.70022 3.6001 8.90022 6.60009 8.20022 6.90009C7.80022 7.20009 7.20021 6.60009 5.90021 4.30009C5.20021 3.10009 5.20022 2.30009 4.70022 1.80009C4.40022 1.50009 3.90021 1.30009 3.90021 1.30009H0.800215C0.800215 1.30009 0.300217 1.30009 0.200217 1.40009C0.000217013 1.60009 0.200217 2.0001 0.200217 2.0001C0.200217 2.0001 2.60022 7.90009 5.30022 10.9001C7.70022 13.7001 10.6002 13.6001 10.6002 13.6001C10.6002 13.6001 12.2002 13.7001 12.5002 13.3001C12.7002 13.1001 12.7002 12.7001 12.7002 12.7001C12.7002 12.7001 12.7002 10.9001 13.5002 10.6001C14.3002 10.3001 15.3002 12.4001 16.4002 13.1001C17.2002 13.7001 17.4002 13.6001 17.8002 13.6001C18.6002 13.6001 20.7002 13.6001 20.7002 13.6001C20.7002 13.6001 22.2002 13.4001 21.5002 12.2001C21.4002 12.0001 21.1002 11.2001 19.4002 9.5001Z" fill="white"/>
</svg>
