<svg width="300" height="300" viewBox="0 0 300 300" fill="none" xmlns="http://www.w3.org/2000/svg">
<rect width="300" height="300" fill="#1A2463"/>
<path d="M164.065 88.6601C169.382 75.4794 172.702 59.0919 162.135 57.6574C147.94 55.7648 139.897 78.093 138.943 87.5711C138.913 87.864 138.89 88.1644 138.868 88.4648L138.838 88.4948V88.5098C115.691 93.4742 92.5516 110.785 91.6203 129.351C90.5313 151.168 104.869 154.503 109.608 154.503C122.375 154.503 128.068 141.232 128.068 141.232C128.068 141.232 114.812 136.005 115.285 123.178C115.691 112.25 122.983 99.6101 138.605 96.1178L138.642 96.1328C138.612 100.549 138.71 105.919 138.845 111.702C132.814 117.417 127.595 121.285 127.595 121.285L127.129 130.778C127.129 130.778 132.604 126.557 139.108 120.872C139.386 129.974 139.709 139.407 139.904 147.376C140.205 160.324 142.03 178.198 137.801 189.569C133.032 187.856 127.873 185.814 119.559 185.371C108.233 184.747 101.864 188.39 101.106 194.864C100.407 200.759 105.357 208.164 118.139 207.691C124.178 207.473 132.281 204.019 139.431 197.988C147.475 201.728 155.105 208.127 167.182 207.691C182.435 207.128 214.685 193.902 216.096 151.191C217.283 115.111 188.451 94.2778 164.065 88.6601ZM156.457 86.6248C156.404 86.8576 156.322 87.1204 156.262 87.3457C154.542 87.1955 152.867 87.0979 151.252 87.0979C149.758 87.0979 148.233 87.173 146.686 87.3007C150.584 69.5838 160.19 70.7029 156.457 86.6248ZM145.469 95.2166L145.544 95.0063C145.544 95.0814 145.537 95.1415 145.522 95.2091C146.168 95.179 146.806 95.1715 147.46 95.1715C149.21 95.1715 150.937 95.2241 152.657 95.3593C150.742 98.5211 148.323 101.653 145.762 104.559C145.402 101.705 145.282 98.5962 145.522 95.2091C145.507 95.2166 145.484 95.2166 145.469 95.2166ZM121.346 200.376C108.564 200.376 111.095 190.913 122.383 192.505C125.319 192.896 129.525 194.203 134.422 195.652C131.823 198.386 126.183 200.376 121.346 200.376ZM189.112 138.859C188.166 173.519 180.197 195.66 158.83 196.298C152.739 196.471 148.504 194.961 144.486 193.009C150.261 186.429 155.413 177.522 158.83 165.911C167.347 136.959 166.874 128.893 166.874 128.893C166.874 128.893 157.876 129.839 153.618 124.139C151.74 121.638 149.405 117.905 147.7 112.956C152.086 108.645 156.096 104.169 158.35 100.406C159.041 99.2496 159.784 97.9053 160.52 96.4558C176.84 99.9481 189.87 111.274 189.112 138.859Z" fill="#009FDF"/>
<path d="M150.139 0L50.627 149.996L150.139 300L249.658 149.996L150.139 0ZM59.5417 149.996L150.139 13.5186L240.751 149.996L150.139 286.474L59.5417 149.996Z" fill="#009FDF"/>
</svg>
